<?xml version="1.0" encoding="utf-8"?><!-- Uploaded to: SVG Repo, www.svgrepo.com, Generator: SVG Repo Mixer Tools -->
<svg fill="#000000" width="800px" height="800px" viewBox="0 0 24 24" id="microphone-stand" data-name="Line Color" xmlns="http://www.w3.org/2000/svg" class="icon line-color"><path id="secondary" d="M12,13v8m2,0H10" style="fill: none; stroke: rgb(44, 169, 188); stroke-linecap: round; stroke-linejoin: round; stroke-width: 2;"></path><path id="primary" d="M15.28,10.65,6.62,15.78a1,1,0,0,1-1.34-.3L4.09,13.73a1,1,0,0,1,.23-1.35l8-6.12Zm4.11-5.89a4,4,0,0,0-5.55-1.08A4,4,0,0,0,12.2,6.07l3.28,4.87a4,4,0,0,0,2.83-.62A4,4,0,0,0,19.39,4.76Z" style="fill: none; stroke: rgb(0, 0, 0); stroke-linecap: round; stroke-linejoin: round; stroke-width: 2;"></path><line id="secondary-2" data-name="secondary" x1="11.57" y1="5.14" x2="16.04" y2="11.77" style="fill: none; stroke: rgb(44, 169, 188); stroke-linecap: round; stroke-linejoin: round; stroke-width: 2;"></line></svg>